<?xml version="1.0" encoding="utf-8"?>
<!-- Generator: Adobe Illustrator 27.5.0, SVG Export Plug-In . SVG Version: 6.00 Build 0)  -->
<svg version="1.1" xmlns="http://www.w3.org/2000/svg" xmlns:xlink="http://www.w3.org/1999/xlink" x="0px" y="0px"
	 viewBox="0 0 2000 2000" style="enable-background:new 0 0 2000 2000;" xml:space="preserve">
<g id="Ñëîé_1">
	<rect style="fill:#FFFFFF;" width="2000" height="2000"/>
</g>
<g id="Ñëîé_2">
	<g>
		<defs>
			<circle id="SVGID_1_" cx="1000" cy="1000" r="724.617"/>
		</defs>
		<clipPath id="SVGID_00000031917063693960892060000011879517916542663576_">
			<use xlink:href="#SVGID_1_"  style="overflow:visible;"/>
		</clipPath>
		
			<circle style="clip-path:url(#SVGID_00000031917063693960892060000011879517916542663576_);fill:#F7EBDF;" cx="1000" cy="1000" r="724.617"/>
		<g style="clip-path:url(#SVGID_00000031917063693960892060000011879517916542663576_);">
			<g>
				<rect x="884.821" y="1099.936" style="fill:#FE9592;" width="226.922" height="289.428"/>
				<path style="fill:#E58585;" d="M1111.743,1099.936c0,25.03,0.7,20.732,0.784,28.646c0.03,3.397-40.688,84.448-114.245,81.874
					c-70.63-2.472-113.461-61.495-113.461-61.418v-49.102H1111.743z"/>
			</g>
			<ellipse style="fill:#FE9592;" cx="998.282" cy="952.343" rx="178.365" ry="234.675"/>
			<g>
				<polygon style="fill:#FE9592;" points="657.629,2144.378 489.805,2136.457 488.399,2013.906 670.401,2024.094 				"/>
				<path style="fill:#70BB90;" d="M685.87,2024.959l-269.326-13.462l66.05-497.295c-0.993-86.934,56.277-160.227,127.996-156.842
					c2.519,0.108,5.025,0.328,7.464,0.625c67.712,8.247,114.067,84.146,105.218,167.547L685.87,2024.959z"/>
				
					<ellipse transform="matrix(0.047 -0.9989 0.9989 0.047 -1591.4417 2612.7026)" style="fill:#FE9592;" cx="573.578" cy="2140.415" rx="77.306" ry="84.147"/>
				<polygon style="fill:#E58585;" points="488.398,2014.714 488.671,2037.215 664.216,2078.588 670.402,2023.796 				"/>
			</g>
			<g>
				<polygon style="fill:#FE9592;" points="1342.952,2144.378 1510.776,2136.457 1512.182,2013.906 1330.18,2024.094 				"/>
				<path style="fill:#70BB90;" d="M1316.528,2024.858l266.928-14.942l-65.469-495.713c0.993-86.934-56.277-160.227-127.996-156.842
					c-2.519,0.108-5.025,0.328-7.464,0.625c-67.712,8.247-114.067,84.146-105.217,167.547L1316.528,2024.858z"/>
				
					<ellipse transform="matrix(0.9989 -0.047 0.047 0.9989 -99.0769 69.4746)" style="fill:#FE9592;" cx="1427.002" cy="2140.415" rx="84.147" ry="77.306"/>
				<polygon style="fill:#E58585;" points="1512.183,2014.714 1511.91,2037.215 1336.365,2078.588 1330.179,2023.796 				"/>
			</g>
			<g>
				<path style="fill:#090580;" d="M1308.755,3274.518l-208.619,19.828c-0.226-0.452-0.48-0.875-0.65-1.356
					c-53.412-153.569-81.84-480.507-91.5-693.73c-4.858-106.965-12.47-181.617-1.116-198.903c0-0.028,0-0.085-0.028-0.113
					c-8.756-55.361-23.556-70.698-0.141-84.312c0.396-0.226,0.819-0.48,1.271-0.706c7.485-4.124,18.585-8.106,34.459-13.078
					c22.285-7.005,45.475-11.468,67.336-13.558c50.813-4.83,111.795,2.062,155.716,26.635c0.311,0.169,0.622,0.339,0.96,0.537
					c28.556,16.241,49.768,40.08,55.926,73.24v0.028c0.565,3.051,1.017,6.214,1.327,9.434c0.028,0.424,0.706,17.343,1.61,46.576
					l0.028,0.396v0.085c1.073,34.657,2.486,86.458,3.559,148.513C1332.34,2790.537,1332.538,3089.964,1308.755,3274.518z"/>
				<path style="fill:#090580;" d="M1308.815,3274.139l0.036,0.375c0.469,4.933,0.618,9.788,0.481,14.616l0.015,0.161
					c-1.538,55.141-41.233,101.385-94.152,106.417c-57.558,5.472-108.973-39.928-114.815-101.374
					c-5.844-61.473,36.094-115.748,93.652-121.22C1251.507,3167.65,1302.789,3212.847,1308.815,3274.139z"/>
				<path style="fill:#080856;" d="M1120.254,3254.565l110.478,5.585l-68.775,26.977c-3.02,1.185-6.19,1.941-9.42,2.248
					l-52.409,4.983c-34.956-75.982-76.883-427.401-86.812-597.245l33.849,155.769L1120.254,3254.565z"/>
			</g>
			<g>
				<path style="fill:#090580;" d="M698.557,3274.162l208.638,19.835c0.215-0.467,0.473-0.888,0.641-1.373
					c80.194-230.607,126.585-840.884,92.604-892.617c11.587-73.235,33.724-76.543-35.543-98.223
					c-22.289-6.988-45.47-11.464-67.346-13.544c-87.533-8.322-205.191,18.058-213.918,109.851
					C683.397,2400.586,660.883,2981.648,698.557,3274.162z"/>
				<path style="fill:#090580;" d="M698.509,3273.779l-0.036,0.375c-0.469,4.933-0.618,9.788-0.482,14.616l-0.015,0.16
					c1.538,55.141,41.233,101.385,94.152,106.417c57.558,5.472,108.973-39.928,114.815-101.374
					c5.844-61.473-36.094-115.748-93.652-121.22C755.816,3167.29,704.535,3212.486,698.509,3273.779z"/>
				<path style="fill:#080856;" d="M887.069,3254.205l-110.477,5.585l68.775,26.977c3.02,1.185,6.19,1.941,9.42,2.248l52.409,4.983
					c34.956-75.982,108.443-543.935,114.934-717.178l-142.585-36.056l48.501,127.545L887.069,3254.205z"/>
			</g>
			<g>
				<g>
					<path style="fill:#FF9D02;" d="M665.409,4222.256l-3.849,89.423l76.594,7.282c8.518-28.419,17.332-57.554,26.259-87.292
						L665.409,4222.256z"/>
					<polygon style="opacity:0.6;fill:#231F20;" points="665.409,4222.256 664.809,4240.516 755.334,4261.859 764.414,4231.668 
											"/>
				</g>
				<path style="fill:#090580;" d="M696.994,3261.239l-0.482,14.616l-0.015,0.161l-31.088,946.24l99.005,9.413
					c106.181-310.19,143.072-607.151,141.049-950.61L696.994,3261.239z"/>
				<path style="fill:#080856;" d="M848.44,3275.637l57.024,5.421c-12.2,331.584-34.868,640.42-141.049,950.61l-6.804-0.647
					l89.217-938.421l-42.981-5.238L848.44,3275.637z"/>
				<g>
					<polygon style="opacity:0.8;fill:#231F20;" points="789.55,4157.724 668.397,4131.335 668.763,4120.191 790.457,4155.03 					
						"/>
					<g>
						<polygon style="fill:#090580;" points="660.575,4221.796 776.995,4232.864 802.524,4160.549 646.191,4126.498 						"/>
					</g>
					<g>
						
							<rect x="721.521" y="4089.659" transform="matrix(0.1925 -0.9813 0.9813 0.1925 -3502.6094 4071.9194)" style="fill:#FFFFFF;" width="2.822" height="149.211"/>
					</g>
				</g>
			</g>
			<g>
				<g>
					<path style="fill:#FF9D02;" d="M1341.914,4222.616l3.849,89.423l-76.594,7.282c-8.518-28.418-17.332-57.554-26.259-87.292
						L1341.914,4222.616z"/>
					<polygon style="opacity:0.6;fill:#231F20;" points="1341.914,4222.616 1342.515,4240.877 1251.99,4262.22 1242.909,4232.029 
											"/>
				</g>
				<path style="fill:#090580;" d="M1310.33,3261.6l0.481,14.616l0.015,0.161l31.088,946.24l-99.005,9.413
					c-106.181-310.19-143.072-607.151-141.049-950.61L1310.33,3261.6z"/>
				<path style="fill:#080856;" d="M1158.884,3275.998l-57.024,5.421c12.2,331.584,34.868,640.42,141.049,950.61l6.804-0.646
					l-89.217-938.421l42.981-5.238L1158.884,3275.998z"/>
				<g>
					<polygon style="opacity:0.8;fill:#231F20;" points="1217.773,4158.084 1338.927,4131.695 1338.561,4120.552 1216.867,4155.391 
											"/>
					<g>
						<polygon style="fill:#090580;" points="1346.749,4222.157 1230.329,4233.225 1204.799,4160.91 1361.133,4126.859 						"/>
					</g>
					<g>
						
							<rect x="1209.787" y="4163.215" transform="matrix(0.9813 -0.1925 0.1925 0.9813 -777.8416 325.2295)" style="fill:#FFFFFF;" width="149.21" height="2.822"/>
					</g>
				</g>
			</g>
			<g>
				<path style="fill:#090580;" d="M1325.335,2445.437v0.085c-0.367,2.711-13.388,51.858-36.493,76.714
					c-0.452,0.508-0.96,1.017-1.441,1.525c-51.632,52.367-476.146,14.774-515.717-15.59c-47.537-36.464-89.436-22.005-89.436-76.575
					l2.74-66.263l2.09-50.107h626.732v0.056l8.558,73.72v0.028l2.937,56.01L1325.335,2445.437z"/>
				<rect x="687.067" y="2276.5" style="fill:#FBA710;" width="626.75" height="38.733"/>
			</g>
			<path style="fill:#080856;" d="M1328.894,2594.035c-0.141,1.695-0.254,3.446-0.367,5.169v0.028
				c-0.028,0.028-0.028,0.028-0.028,0.028s-21.043-34.092-39.007-75.499c-0.226-0.509-0.424-0.989-0.65-1.525
				c-14.716-35.25-22.4-112.149-18.841-140.987c-29.544,4.66-145.179,24.335-263.159,18.997
				c-25.449-1.187-51.124-3.051-76.205-5.847c-128.262-14.32-243.558-29.064-243.558-29.064l2.09-50.107
				c0,0,154.247,0.508,310.697,0.706h6.835c93.237,0.141,186.447,0.169,247.512-0.113c4.237-0.028,8.304-0.028,12.23-0.056
				c21.24-0.113,37.594-0.282,47.367-0.48l8.558,73.72v0.028c0.565,3.051,1.017,6.214,1.327,9.434
				c0.028,0.424,0.706,17.343,1.61,46.576l0.028,0.396v0.085C1326.409,2480.179,1327.821,2531.98,1328.894,2594.035z"/>
			<path style="fill:#FE9592;" d="M528.777,2633.06c0,0-15.277,85.843-5.302,116.422c3.624,11.108,3.771,24.287,12.078,22.943
				c5.676-0.539,3.593-26.641,3.593-26.641s-4.147,54.821,12.66,53.949c16.807-0.871,5.28-49.966,5.28-49.966
				s-4.766,66.622,10.81,66.822c15.576,0.199,11.461-63.195,11.461-63.195s-2.444,83.357,11.136,82.667
				c13.58-0.69,18.126-125.532,18.126-125.532l8.895,19.281c0,0,0.497,22.282,12.858,32.439c3.248,2.669,7.82-0.158,7.351-4.503
				c-0.751-6.958-0.736-13.379-0.583-17.623c0.12-3.33-0.61-6.626-2.081-9.579c-3.582-7.192-9.847-22.467-9.108-40.178
				c1.028-24.641-10.43-59.756-10.43-59.756L528.777,2633.06z"/>
			<path style="fill:#FE9592;" d="M1471.804,2633.06c0,0,15.277,85.843,5.302,116.422c-3.624,11.108-3.771,24.287-12.078,22.943
				c-5.676-0.539-3.593-26.641-3.593-26.641s4.147,54.821-12.66,53.949c-16.807-0.871-5.28-49.966-5.28-49.966
				s4.766,66.622-10.81,66.822c-15.576,0.199-11.461-63.195-11.461-63.195s2.444,83.357-11.136,82.667
				c-13.58-0.69-18.126-125.532-18.126-125.532l-8.895,19.281c0,0-0.497,22.282-12.858,32.439c-3.248,2.669-7.82-0.158-7.351-4.503
				c0.751-6.958,0.736-13.379,0.583-17.623c-0.12-3.33,0.61-6.626,2.081-9.579c3.582-7.192,9.847-22.467,9.108-40.178
				c-1.028-24.641,10.43-59.756,10.43-59.756L1471.804,2633.06z"/>
			<polygon style="fill:#FE9592;" points="615.015,2642.695 529.301,2642.452 489.431,2140.415 657.725,2140.891 			"/>
			<ellipse style="fill:#FE9592;" cx="572.09" cy="2639.926" rx="42.99" ry="40.66"/>
			<polygon style="fill:#FE9592;" points="1385.566,2642.695 1471.28,2642.452 1511.149,2140.415 1342.855,2140.891 			"/>
			<ellipse style="fill:#FE9592;" cx="1428.491" cy="2639.926" rx="42.99" ry="40.66"/>
			<path style="fill:#664FC4;" d="M1517.994,1514.202c-8.47-159.496-163.264-209.398-192.374-219.011
				c-45.431-15.002-213.881-47.596-213.881-47.596c-26.195,37.868-53.832,69.607-86.129,81.55l-32.168,60.219l-23.094-60.219
				c-27.951-5.961-56.743-43.874-85.529-81.55c0,0-164.426,32.595-209.856,47.596c-29.111,9.613-183.904,59.515-192.374,219.011
				c-5.356,100.865,212.019,249.734,212.019,249.734v305.052l-7.199,211.289l312.883-1.912l312.883,1.912l-7.199-211.289v-305.052
				C1305.975,1763.937,1523.35,1615.068,1517.994,1514.202z"/>
			<path style="opacity:0.2;fill:#231F20;" d="M1313.174,2280.278l-9.206-291.465l2.332-98.91l11.067,134.955l86.049-5.574
				c0,0-79.416-210.592-102.087-481.408c-17.705,310.493-348.412,615.346-613.921,742.403H1313.174z"/>
			<polygon style="opacity:0.2;fill:#231F20;" points="611.668,2020.083 714.214,1545.672 701.091,1848.449 685.195,2024.959 			"/>
			<g>
				<g>
					<path style="fill:#70BB92;" d="M794.285,4357.582l-353.384-1.157c0.064-2.412,0.685-4.821,2.143-7.078
						c8.333-12.727,3.899-17.997,70.427-25.824c12.12-1.426,23.987-4.584,34.995-9.364c50.081-21.745,30.541-12.352,66.582-30.431
						c7.709-3.867,28.881-21.406,50.606,4.69c26.333,31.555,78.694,3.553,88.401-8.977c3.198-4.128,9.496-5.029,13.985-2.025
						c6.032,4.036,12.976,12.528,15.196,30.392c4.129,33.725,5.566,37.9,5.566,37.9S791.907,4351.092,794.285,4357.582z"/>
					<path style="fill:#70BB92;" d="M794.386,4377.528c-7.274,7.01-272.392,0.715-332.856-0.839
						c-9.483-0.232-17.775-6.137-19.979-14.435c-0.496-1.911-0.824-3.871-0.65-5.83l353.384,1.157
						C796.939,4364.775,798.695,4373.372,794.386,4377.528z"/>
					<g>
						<path style="fill:#FFFFFF;" d="M570.083,4334.645c-0.421,0-0.837-0.188-1.116-0.543l-19.147-24.593
							c-0.479-0.618-0.368-1.503,0.247-1.983c0.615-0.483,1.501-0.37,1.982,0.245l19.147,24.593
							c0.479,0.618,0.368,1.503-0.247,1.983C570.691,4334.548,570.386,4334.645,570.083,4334.645z"/>
					</g>
					<g>
						<path style="fill:#FFFFFF;" d="M599.456,4322.475c-0.421,0-0.837-0.188-1.116-0.543l-19.147-24.596
							c-0.479-0.618-0.368-1.503,0.247-1.983c0.614-0.483,1.502-0.37,1.982,0.245l19.147,24.596
							c0.479,0.618,0.368,1.503-0.247,1.983C600.065,4322.378,599.76,4322.475,599.456,4322.475z"/>
					</g>
					<g>
						<path style="fill:#FFFFFF;" d="M631.258,4305.704c-0.421,0-0.837-0.188-1.116-0.543l-19.147-24.596
							c-0.479-0.618-0.368-1.503,0.247-1.983c0.614-0.482,1.502-0.367,1.982,0.246l19.147,24.596
							c0.479,0.618,0.368,1.503-0.247,1.983C631.867,4305.608,631.562,4305.704,631.258,4305.704z"/>
					</g>
				</g>
			</g>
			<g>
				<g>
					<path style="fill:#70BB92;" d="M1213.039,4357.942l353.384-1.158c-0.064-2.412-0.685-4.821-2.143-7.077
						c-8.333-12.728-3.899-17.998-70.427-25.825c-12.12-1.426-23.987-4.584-34.995-9.364
						c-50.081-21.745-30.541-12.352-66.582-30.431c-7.709-3.867-28.881-21.407-50.606,4.69c-26.333,31.554-78.693,3.552-88.4-8.978
						c-3.198-4.128-9.496-5.029-13.985-2.025c-6.032,4.036-12.976,12.528-15.196,30.392c-4.129,33.726-5.566,37.9-5.566,37.9
						S1215.417,4351.453,1213.039,4357.942z"/>
					<path style="fill:#70BB92;" d="M1212.938,4377.888c7.274,7.01,272.392,0.715,332.856-0.839
						c9.482-0.232,17.775-6.137,19.979-14.434c0.496-1.911,0.824-3.872,0.65-5.83l-353.384,1.158
						C1210.385,4365.135,1208.629,4373.732,1212.938,4377.888z"/>
					<g>
						<path style="fill:#FFFFFF;" d="M1437.242,4335.006c-0.303,0-0.608-0.097-0.866-0.298c-0.615-0.48-0.725-1.365-0.247-1.983
							l19.147-24.596c0.479-0.612,1.365-0.729,1.982-0.246c0.615,0.48,0.725,1.365,0.247,1.983l-19.147,24.596
							C1438.079,4334.818,1437.662,4335.006,1437.242,4335.006z"/>
					</g>
					<g>
						<path style="fill:#FFFFFF;" d="M1407.867,4322.836c-0.303,0-0.608-0.097-0.866-0.298c-0.615-0.48-0.725-1.365-0.247-1.983
							l19.147-24.596c0.479-0.612,1.364-0.725,1.982-0.246c0.615,0.48,0.725,1.366,0.247,1.983l-19.147,24.596
							C1408.704,4322.648,1408.288,4322.836,1407.867,4322.836z"/>
					</g>
					<g>
						<path style="fill:#FFFFFF;" d="M1376.065,4306.063c-0.303,0-0.608-0.097-0.866-0.298c-0.615-0.48-0.725-1.366-0.247-1.983
							l19.147-24.593c0.479-0.612,1.365-0.728,1.982-0.246c0.615,0.48,0.725,1.366,0.247,1.983l-19.147,24.593
							C1376.902,4305.875,1376.486,4306.063,1376.065,4306.063z"/>
					</g>
				</g>
			</g>
			<ellipse style="fill:#FE9592;" cx="823.196" cy="949.519" rx="22.931" ry="41.845"/>
			<ellipse style="fill:#FE9592;" cx="1170.157" cy="949.519" rx="22.931" ry="41.845"/>
			<g>
				<path style="fill:#511957;" d="M945.1,674.369c-0.99-0.503-1.723-1.471-1.878-2.657c-0.247-1.906,1.097-3.651,3.005-3.899
					c70.702-9.175,85.424,27.87,86.014,29.45c0.676,1.801-0.238,3.806-2.037,4.481c-1.798,0.672-3.794-0.236-4.475-2.023
					c-0.547-1.414-13.805-33.412-78.606-25.005C946.401,674.81,945.704,674.676,945.1,674.369z"/>
			</g>
			<g>
				<path style="fill:#511957;" d="M1023.62,708.73c-1.737-0.764-2.801-2.634-2.469-4.59c0.382-2.247,9.951-55.246,60.226-74.435
					c2.184-0.834,4.637,0.261,5.469,2.447c0.834,2.187-0.26,4.636-2.447,5.469c-45.807,17.483-54.809,67.44-54.895,67.942
					c-0.393,2.307-2.582,3.857-4.889,3.465C1024.265,708.969,1023.93,708.867,1023.62,708.73z"/>
			</g>
			<g>
				<g>
					<path style="fill:#231F20;" d="M986.88,1032.31c-5.624,0-9.928-1.529-12.797-4.547c-5.702-6.006-3.464-15.297-2.386-19.762
						l10.706-44.444c0.442-1.833,2.282-2.956,4.117-2.52c1.831,0.442,2.96,2.285,2.517,4.117l-10.706,44.445
						c-1.209,5.018-2.071,10.541,0.702,13.462c1.971,2.075,5.595,2.459,8.239,2.419c1.187-0.018,2.375-0.099,3.564-0.178
						c2.795-0.188,5.686-0.381,8.682,0.122c1.86,0.312,3.113,2.072,2.802,3.931c-0.313,1.86-2.084,3.105-3.931,2.802
						c-2.209-0.37-4.586-0.212-7.099-0.044c-1.304,0.087-2.609,0.173-3.911,0.193C987.213,1032.309,987.046,1032.31,986.88,1032.31z
						"/>
				</g>
				<g>
					<ellipse style="fill:#231F20;" cx="922.336" cy="953.368" rx="11.874" ry="17.04"/>
					<path style="fill:#231F20;" d="M880.577,921.195c-0.043-6.498,0.906-12.576,3.89-17.793c0,0,31.278-18.803,63.032-11.861
						c3.123,5.262,0.894,15.458,0.894,15.458S910.789,903.075,880.577,921.195z"/>
					<ellipse style="fill:#231F20;" cx="1056.676" cy="953.368" rx="11.874" ry="17.04"/>
					<path style="fill:#231F20;" d="M1098.436,921.195c0.043-6.498-0.906-12.576-3.89-17.793c0,0-31.278-18.803-63.032-11.861
						c-3.123,5.262-0.894,15.458-0.894,15.458S1068.223,903.075,1098.436,921.195z"/>
				</g>
				<g>
					<path style="fill:#231F20;" d="M996.839,1091.279c-27.576,0-51.196-16.647-51.563-16.911c-1.266-0.91-1.553-2.674-0.643-3.94
						c0.912-1.265,2.678-1.554,3.94-0.645c2.185,1.565,53.853,37.87,90.95-4.001c1.034-1.168,2.819-1.276,3.987-0.241
						c1.168,1.034,1.276,2.82,0.241,3.987C1029.162,1085.994,1012.371,1091.279,996.839,1091.279z"/>
				</g>
			</g>
			<path style="fill:#511957;" d="M879.694,864.991c2.711,8.15,10.261,14.614,18.599,17.391c10.099,3.364,21.113,2.318,31.591,0.439
				c31.983-5.734,62.049-18.759,90.868-33.385c28.597-14.514,54.203-33.173,82.019-48.966c4.975-2.825,10.63-4.83,16.331-4.365
				s11.396,3.809,13.47,9.14c2.541,6.53-0.724,13.75-3.978,19.956c-6.036,11.508-6.777,19.875,2.308,29.588
				c11.587,12.388,17.024,29.314,20.012,46.011c4.539,25.363-3.174,57.534,13.801,84.396c-2.125-12.884,3.435-40.335,7.767-52.311
				c5.335-14.748,13.641-26.294,22.49-39.067c27.669-39.937,57.043-89.105,54.152-139.604c-2.314-40.069-27.111-75.72-61.921-94.931
				c-36.901-20.365-97.846-25.039-130.693,5.7c-11.24,10.518-21.793,25.085-39.133,22.041c-51.488-9.038-113.487-13.948-162.495,7.7
				c-40.809,18.026-83.718,66.976-77.04,114.228c2.578,18.239,17.891,35.215,25.071,52.371
				c16.257,38.846,21.892,88.476,27.667,130.04c-0.502-3.615,6.194-17.299,7.201-20.992c1.672-6.126,3.005-12.32,4.246-18.545
				c1.99-9.976,3.452-19.966,4.431-30.093c2.14-22.124,2.871-45.103,12.479-65.583c2.114-4.506,10.343-18.817,17.217-15.833
				c5.72,2.483,2.249,14.637,2.506,19.298C878.764,861.471,879.121,863.269,879.694,864.991z"/>
			<path style="fill:#F9FAFF;" d="M884.821,1220.873c-21.094,7.019-40.054,19.993-57.743,42.888l0,153.846
				c0,0,81.731-88.942,143.269-88.462C907.744,1294.19,882.263,1228.085,884.821,1220.873z"/>
			<path style="fill:#F9FAFF;" d="M1111.135,1220.873c21.094,7.019,40.054,19.993,57.743,42.888l0,153.846
				c0,0-81.731-88.942-143.269-88.462C1088.212,1294.19,1113.693,1228.085,1111.135,1220.873z"/>
			
				<ellipse transform="matrix(0.9239 -0.3827 0.3827 0.9239 -468.831 488.138)" style="fill:#F9FAFF;" cx="992.599" cy="1422.553" rx="7.691" ry="7.691"/>
			
				<ellipse transform="matrix(0.1602 -0.9871 0.9871 0.1602 -656.4766 2247.5488)" style="fill:#F9FAFF;" cx="992.599" cy="1509.572" rx="7.691" ry="7.691"/>
		</g>
	</g>
</g>
</svg>
